{"title":"Captain.America.The.Winter.Soldier.2014.BRRip x264 Ac3-MiLLENiUM","uid":10845966,"size":1292387731,"categoryP":"video","categoryS":"hd___movies","magnet":"?xt=urn:btih:208ff7926aef6cd031b5c1792db5c77b823a1343&amp;dn=Captain.America.The.Winter.Soldier.2014.BRRip+x264+Ac3-MiLLENiUM&amp;tr=udp%3A%2F%2Ftracker.openbittorrent.com%3A80&amp;tr=udp%3A%2F%2Fopen.demonii.com%3A1337&amp;tr=udp%3A%2F%2Ftracker.coppersurfer.tk%3A6969&amp;tr=udp%3A%2F%2Fexodus.desync.com%3A6969","seeders":4,"leechers":1,"uploader":"ali1997a","files":4,"time":1408779553,"description":"SilverTorrent - Clean And Verified Torrents Download\n &lt;a href=&quot;\nhttp://i.imgur.com/ky6BGho.png&quot; rel=&quot;nofollow&quot; target=&quot;_NEW&quot;&gt;\nhttp://i.imgur.com/ky6BGho.png&lt;/a&gt;\n &lt;a href=&quot;\nhttp://i.imgur.com/fDvD9Uf.jpg&quot; rel=&quot;nofollow&quot; target=&quot;_NEW&quot;&gt;\nhttp://i.imgur.com/fDvD9Uf.jpg&lt;/a&gt;\n\nCaptain.America.The.Winter.Soldier.2014.BRRip x264 Ac3-MiLLENiUM\n\niMDB:http://www.imdb.com/title/tt1843866/\n\nGeneral\nComplete name: Captain.America.The.Winter.Soldier.2014.BRRip x264 Ac3-MiLLENiUM.mkv\nsource: 1080p bluray [thanks]\nFormat: Matroska\nFormat version: Version 2\nFile size: 1.17 GiB\nDuration: 2h 15mn\nOverall bit rate mode: Variable\nOverall bit rate: 1 230 Kbps\nEncoded date: UTC 2014-08-23 00:32:21\n\nVideo\nID: 1\nFormat: AVC\nFormat/Info: Advanced Video Codec\nFormat profile: &lt;a class=&quot;__cf_email__&quot; href=&quot;/cdn-cgi/l/email-protection&quot; data-cfemail=&quot;b2fadbd5daf2fe869c83&quot;&gt;[email&amp;#160;protected]&lt;/a&gt;&lt;script cf-hash='f9e31' type=&quot;text/javascript&quot;&gt;\n/* &lt;![CDATA[ */!function(){try{var t=&quot;currentScript&quot;in document?document.currentScript:function(){for(var t=document.getElementsByTagName(&quot;script&quot;),e=t.length;e--;)if(t[e].getAttribute(&quot;cf-hash&quot;))return t[e]}();if(t&amp;&amp;t.previousSibling){var e,r,n,i,c=t.previousSibling,a=c.getAttribute(&quot;data-cfemail&quot;);if(a){for(e=&quot;&quot;,r=parseInt(a.substr(0,2),16),n=2;a.length-n;n+=2)i=parseInt(a.substr(n,2),16)^r,e+=String.fromCharCode(i);e=document.createTextNode(e),c.parentNode.replaceChild(e,c)}}}catch(u){}}();/* ]]&gt; */&lt;/script&gt;\nFormat settings, CABAC: Yes\nFormat settings, ReFrames: 3 frames\nFormat settings, GOP: M=4, N=23\nCodec ID: V_MPEG4/ISO/AVC\nDuration: 2h 15mn\nBit rate mode: Variable\nBit rate: 821 Kbps\nMaximum bit rate: 40.0 Mbps\nWidth: 720 pixels\nHeight: 304 pixels\nDisplay aspect ratio: 2.35:1\nFrame rate: 23.976 fps\nColor space: YUV\nChroma subsampling: 4:2:0\nBit depth: 8 bits\nScan type: Progressive\nBits/(Pixel*Frame): 0.157\nStream size: 798 MiB (67%)\nWriting library: x264 core 142 r2453 ea0ca51\nDefault: Yes\nForced: No\nColor primaries: BT.709-5, BT.1361, IEC 61966-2-4, SMPTE RP177\nTransfer characteristics: BT.709-5, BT.1361\nMatrix coefficients: BT.709-5, BT.1361, IEC 61966-2-4 709, SMPTE RP177\n\nAudio\nID: 2\nFormat: AC-3\nFormat/Info: Audio Coding 3\nMode extension: CM (complete main)\nCodec ID: A_AC3\nDuration: 2h 15mn\nBit rate mode: Constant\nBit rate: 384 Kbps\nChannel(s): 6 channels\nChannel positions: Front: L C R, Side: L R, LFE\nSampling rate: 48.0 KHz\nBit depth: 16 bits\nCompression mode: Lossy\nStream size: 373 MiB (31%)\nLanguage: English\nDefault: Yes\nForced: No\n &lt;a href=&quot;\nhttp://i.imgur.com/Hfh87FG.jpg&quot; rel=&quot;nofollow&quot; target=&quot;_NEW&quot;&gt;\nhttp://i.imgur.com/Hfh87FG.jpg&lt;/a&gt;","torrent":{"xt":"urn:btih:208ff7926aef6cd031b5c1792db5c77b823a1343","amp;dn":"Captain.America.The.Winter.Soldier.2014.BRRip+x264+Ac3-MiLLENiUM","amp;tr":["udp%3A%2F%2Ftracker.openbittorrent.com%3A80","udp%3A%2F%2Fopen.demonii.com%3A1337","udp%3A%2F%2Ftracker.coppersurfer.tk%3A6969","udp%3A%2F%2Fexodus.desync.com%3A6969"],"infoHash":"208ff7926aef6cd031b5c1792db5c77b823a1343","infoHashBuffer":{"type":"Buffer","data":[32,143,247,146,106,239,108,208,49,181,193,121,45,181,199,123,130,58,19,67]},"announce":[],"urlList":[]}}